<svg width="512" height="512" xmlns="http://www.w3.org/2000/svg" class="h-full w-full" color="#fff"><rect width="512" height="512" rx="30" fill="transparent" paint-order="stroke"/><svg width="256" height="256" viewBox="0 0 24 24" fill="#FFF" x="128" y="128" style="vertical-align:middle" xmlns="http://www.w3.org/2000/svg" display="inline-block"><path fill="none" stroke="currentColor" stroke-linecap="round" stroke-linejoin="round" stroke-width="2" d="M10.554 6.24L7.171 2.335c-.39-.45-1.105-.448-1.558.006L2.831 5.128c-.828.829-1.065 2.06-.586 3.047a29.207 29.207 0 0013.561 13.58c.986.479 2.216.242 3.044-.587l2.808-2.813c.455-.455.456-1.174.002-1.564l-3.92-3.365c-.41-.352-1.047-.306-1.458.106l-1.364 1.366a.462.462 0 01-.553.088 14.557 14.557 0 01-5.36-5.367.463.463 0 01.088-.554l1.36-1.361c.412-.414.457-1.054.101-1.465z"/></svg></svg>